<?xml version="1.0" encoding="UTF-8" standalone="no"?>
<svg
   version="1.0"
   width="31"
   height="31"
   viewBox="0 0 750.000000 750.000000"
   preserveAspectRatio="xMidYMid meet"
   id="svg1"
   sodipodi:docname="logo-light-icon.svg"
   inkscape:version="1.3.1 (9b9bdc1480, 2023-11-25, custom)"
   xmlns:inkscape="http://www.inkscape.org/namespaces/inkscape"
   xmlns:sodipodi="http://sodipodi.sourceforge.net/DTD/sodipodi-0.dtd"
   xmlns="http://www.w3.org/2000/svg"
   xmlns:svg="http://www.w3.org/2000/svg">
  <defs
     id="defs1">
    <inkscape:path-effect
       effect="fillet_chamfer"
       id="path-effect10"
       is_visible="true"
       lpeversion="1"
       nodesatellites_param="F,0,0,1,0,348,0,1 @ F,0,0,1,0,348,0,1 @ F,0,0,1,0,348,0,1 @ F,0,0,1,0,348,0,1"
       radius="349"
       unit="px"
       method="auto"
       mode="F"
       chamfer_steps="1"
       flexible="false"
       use_knot_distance="true"
       apply_no_radius="true"
       apply_with_radius="true"
       only_selected="false"
       hide_knots="false" />
    <inkscape:path-effect
       effect="offset"
       id="path-effect9"
       is_visible="true"
       lpeversion="1.2"
       linejoin_type="miter"
       unit="mm"
       offset="-0.20067575"
       miter_limit="4"
       attempt_force_join="false"
       update_on_knot_move="true" />
    <inkscape:path-effect
       effect="fillet_chamfer"
       id="path-effect8"
       is_visible="true"
       lpeversion="1"
       nodesatellites_param="F,0,0,1,0,443.51222,0,1 @ F,0,0,1,0,399.55586,0,1 @ F,0,0,1,0,6,0,1 @ F,0,0,1,0,6,0,1"
       radius="6"
       unit="px"
       method="bezier"
       mode="F"
       chamfer_steps="1"
       flexible="false"
       use_knot_distance="true"
       apply_no_radius="true"
       apply_with_radius="true"
       only_selected="true"
       hide_knots="false" />
    <inkscape:path-effect
       effect="fillet_chamfer"
       id="path-effect5"
       is_visible="true"
       lpeversion="1"
       nodesatellites_param="F,0,0,1,0,3,0,1 @ F,0,0,1,0,3,0,1 @ F,0,0,1,0,3,0,1 @ F,0,0,1,0,3,0,1"
       radius="4"
       unit="px"
       method="auto"
       mode="F"
       chamfer_steps="1"
       flexible="false"
       use_knot_distance="true"
       apply_no_radius="true"
       apply_with_radius="true"
       only_selected="false"
       hide_knots="false" />
    <inkscape:path-effect
       effect="offset"
       id="path-effect4"
       is_visible="true"
       lpeversion="1.2"
       linejoin_type="miter"
       unit="mm"
       offset="2.2"
       miter_limit="4"
       attempt_force_join="false"
       update_on_knot_move="true" />
    <inkscape:path-effect
       effect="fillet_chamfer"
       id="path-effect3"
       is_visible="true"
       lpeversion="1"
       nodesatellites_param="F,0,0,1,0,0,0,1 @ F,0,0,1,0,0,0,1 @ F,0,0,1,0,0,0,1 @ F,0,0,1,0,0,0,1 @ F,0,0,1,0,0,0,1 @ F,0,0,1,0,0,0,1 @ F,0,0,1,0,0,0,1 @ F,0,0,1,0,0,0,1 @ F,0,0,1,0,0,0,1 @ F,0,0,1,0,0,0,1 @ F,0,0,1,0,0,0,1 @ F,0,0,1,0,0,0,1 @ F,0,0,1,0,0,0,1 @ F,0,0,1,0,0,0,1 @ F,0,0,1,0,0,0,1 @ F,0,0,1,0,0,0,1 @ F,0,0,1,0,0,0,1 @ F,0,0,1,0,0,0,1 @ F,0,0,1,0,0,0,1 @ F,0,0,1,0,0,0,1 @ F,0,0,1,0,0,0,1 | F,0,0,1,0,0,0,1 @ F,0,0,1,0,0,0,1 @ F,0,0,1,0,0,0,1 @ F,0,0,1,0,0,0,1 @ F,0,0,1,0,0,0,1 @ F,0,0,1,0,0,0,1 @ F,0,0,1,0,0,0,1 @ F,0,0,1,0,0,0,1 @ F,0,0,1,0,0,0,1 @ F,0,0,1,0,0,0,1 @ F,0,0,1,0,0,0,1 @ F,0,0,1,0,0,0,1 @ F,0,0,1,0,0,0,1 @ F,0,0,1,0,0,0,1 @ F,0,0,1,0,0,0,1 @ F,0,0,1,0,0,0,1 @ F,0,0,1,0,0,0,1 @ F,0,0,1,0,0,0,1 @ F,0,0,1,0,0,0,1 @ F,0,0,1,0,0,0,1 @ F,0,0,1,0,0,0,1 @ F,0,0,1,0,0,0,1 @ F,0,0,1,0,0,0,1 @ F,0,0,1,0,0,0,1 @ F,0,0,1,0,0,0,1 @ F,0,0,1,0,0,0,1 @ F,0,0,1,0,0,0,1 @ F,0,0,1,0,0,0,1 @ F,0,0,1,0,0,0,1 @ F,0,0,1,0,0,0,1 @ F,0,0,1,0,0,0,1 @ F,0,0,1,0,0,0,1 @ F,0,0,1,0,0,0,1 @ F,0,0,1,0,0,0,1 @ F,0,0,1,0,0,0,1 @ F,0,0,1,0,0,0,1 @ F,0,0,1,0,0,0,1 @ F,0,0,1,0,0,0,1 @ F,0,0,1,0,0,0,1 @ F,0,0,1,0,0,0,1 @ F,0,0,1,0,0,0,1 @ F,0,0,1,0,0,0,1 @ F,0,0,1,0,0,0,1 @ F,0,0,1,0,0,0,1 @ F,0,0,1,0,0,0,1 @ F,0,0,1,0,0,0,1 @ F,0,0,1,0,0,0,1 @ F,0,0,1,0,0,0,1"
       radius="0"
       unit="px"
       method="auto"
       mode="F"
       chamfer_steps="1"
       flexible="false"
       use_knot_distance="true"
       apply_no_radius="true"
       apply_with_radius="true"
       only_selected="false"
       hide_knots="false" />
    <inkscape:path-effect
       effect="fillet_chamfer"
       id="path-effect10-3"
       is_visible="true"
       lpeversion="1"
       nodesatellites_param="F,0,0,1,0,391,0,1 @ F,0,0,1,0,391,0,1 @ F,0,0,1,0,391,0,1 @ F,0,0,1,0,391,0,1"
       radius="391"
       unit="px"
       method="auto"
       mode="F"
       chamfer_steps="1"
       flexible="false"
       use_knot_distance="true"
       apply_no_radius="true"
       apply_with_radius="true"
       only_selected="false"
       hide_knots="false" />
  </defs>
  <sodipodi:namedview
     id="namedview1"
     pagecolor="#ffffff"
     bordercolor="#000000"
     borderopacity="0.25"
     inkscape:showpageshadow="2"
     inkscape:pageopacity="0.0"
     inkscape:pagecheckerboard="0"
     inkscape:deskcolor="#d1d1d1"
     showgrid="false"
     inkscape:zoom="2"
     inkscape:cx="243.75"
     inkscape:cy="42"
     inkscape:window-width="1920"
     inkscape:window-height="990"
     inkscape:window-x="1920"
     inkscape:window-y="28"
     inkscape:window-maximized="1"
     inkscape:current-layer="g1" />
  <g
     transform="translate(0.000000,750.000000) scale(0.100000,-0.100000)"
     fill="#763ebd"
     stroke="none"
     id="g1">
    <path
       id="rect3"
       style="fill:#ffffff;fill-opacity:1;stroke-width:858.791;stroke-dasharray:none;paint-order:normal"
       d="M 596.6288,7490.9633 C 453.5566,7491.0374 316.32078,7423.7672 215.11794,7303.9544 113.91509,7184.1416 57.037156,7021.6029 56.999229,6852.1025 V 621.31869 C 57.037123,451.81826 113.91505,289.27957 215.11789,169.46674 316.32074,49.653909 453.55658,-17.616349 596.6288,-17.542257 h 6372.5429 c 143.0722,-0.07407 280.308,67.196198 381.5109,187.009027 101.2028,119.81283 158.0807,282.35151 158.1186,451.85192 V 6852.1025 c -0.038,169.5004 -56.9159,332.039 -158.1187,451.8518 -101.2028,119.8128 -238.4386,187.0831 -381.5108,187.009 z M 4701.9716,6767.047 c 92.4731,3.9905 189.992,-6.5952 280.2104,-33.5496 l 106.7918,-32.1321 13.7034,-840.1587 c 7.6174,-462.0117 16.8214,-842.7838 20.3189,-846.3017 3.4975,-3.5187 97.4021,23.2396 208.3857,59.5388 275.9964,90.2666 560.1245,97.4806 766.4441,18.9013 287.6545,-109.5569 436.439,-349.1827 422.9146,-680.9162 -3.9438,-96.7417 -18.0962,-187.1847 -31.6595,-200.8253 -18.6646,-18.7707 -52.6378,-14.0503 -138.9239,18.4286 -376.9899,141.9051 -846.7336,37.6724 -1102.8857,-244.298 -59.7267,-65.7474 -113.2888,-140.2864 -118.6051,-165.8583 -5.3161,-25.5716 -18.9436,-312.0787 -30.2419,-636.4981 -16.6146,-477.1136 -28.6756,-623.8802 -64.7366,-768.8067 C 4842.2197,1645.0777 4369.026,1136.6915 3661.46,939.80402 c -165.2425,-45.98027 -252.5863,-56.2412 -548.135,-62.84642 -193.4782,-4.32449 -409.2625,1.40701 -479.6182,12.28572 -303.9462,47.00893 -705.2464,211.49058 -934.6649,383.22208 -136.1259,101.8973 -366.4879,342.6308 -460.2445,481.0358 -104.0878,153.6552 -226.773,429.7096 -282.5731,636.0257 -42.89616,158.6048 -49.15064,231.5192 -48.67057,558.0582 0.5961,404.1595 21.49409,535.8653 129.94577,811.8069 230.5793,586.6828 741.0952,1046.8319 1340.0958,1207.7873 246.2112,66.1584 759.3201,66.5231 996.5663,0.9452 188.0868,-51.9957 426.8514,-166.6196 575.5419,-276.4303 l 275.5764,-172.1399 -5.5513,-864.1082 -251.42,148.5395 248.8174,-152.1084 c -233.0242,296.5844 -791.8921,586.6605 -1207.7578,586.6605 -189.9789,0 -255.6706,-9.4718 -396.9254,-57.1762 -188.9636,-63.818 -391.8022,-198.1069 -511.2776,-338.3315 -95.8987,-112.5539 -212.9788,-348.5284 -257.5291,-520.256 -41.2861,-159.1442 -46.9943,-560.4606 -10.3957,-720.1359 92.1667,-402.1204 411.7546,-762.0315 777.3123,-875.5986 302.2018,-93.8844 704.9936,-71.2956 962.5441,54.3409 193.5201,94.4014 418.2167,321.3046 519.3107,524.5087 45.9303,92.3227 93.2216,218.6993 105.3744,281.1555 13.826,71.0497 24.874,816.0122 29.7693,1990.2973 8.2661,1982.8394 6.6735,1946.0042 107.7369,2056.9241 72.0247,79.0506 212.5616,126.1302 366.6835,132.781 z"
       sodipodi:nodetypes="csccsccsccsccscccscssscsscssscsssccsccccccscsscssssscs" />
  </g>
</svg>
