<?xml version="1.0" encoding="UTF-8" standalone="no"?>
<svg
   version="1.0"
   width="31"
   height="31"
   viewBox="0 0 750.000000 750.000000"
   preserveAspectRatio="xMidYMid meet"
   id="svg1"
   sodipodi:docname="logo-icon.svg"
   inkscape:version="1.3.1 (9b9bdc1480, 2023-11-25, custom)"
   xmlns:inkscape="http://www.inkscape.org/namespaces/inkscape"
   xmlns:sodipodi="http://sodipodi.sourceforge.net/DTD/sodipodi-0.dtd"
   xmlns="http://www.w3.org/2000/svg"
   xmlns:svg="http://www.w3.org/2000/svg">
  <defs
     id="defs1">
    <inkscape:path-effect
       effect="fillet_chamfer"
       id="path-effect10"
       is_visible="true"
       lpeversion="1"
       nodesatellites_param="F,0,0,1,0,348,0,1 @ F,0,0,1,0,348,0,1 @ F,0,0,1,0,348,0,1 @ F,0,0,1,0,348,0,1"
       radius="349"
       unit="px"
       method="auto"
       mode="F"
       chamfer_steps="1"
       flexible="false"
       use_knot_distance="true"
       apply_no_radius="true"
       apply_with_radius="true"
       only_selected="false"
       hide_knots="false" />
    <inkscape:path-effect
       effect="offset"
       id="path-effect9"
       is_visible="true"
       lpeversion="1.2"
       linejoin_type="miter"
       unit="mm"
       offset="-0.20067575"
       miter_limit="4"
       attempt_force_join="false"
       update_on_knot_move="true" />
    <inkscape:path-effect
       effect="fillet_chamfer"
       id="path-effect8"
       is_visible="true"
       lpeversion="1"
       nodesatellites_param="F,0,0,1,0,443.51222,0,1 @ F,0,0,1,0,399.55586,0,1 @ F,0,0,1,0,6,0,1 @ F,0,0,1,0,6,0,1"
       radius="6"
       unit="px"
       method="bezier"
       mode="F"
       chamfer_steps="1"
       flexible="false"
       use_knot_distance="true"
       apply_no_radius="true"
       apply_with_radius="true"
       only_selected="true"
       hide_knots="false" />
    <inkscape:path-effect
       effect="fillet_chamfer"
       id="path-effect5"
       is_visible="true"
       lpeversion="1"
       nodesatellites_param="F,0,0,1,0,3,0,1 @ F,0,0,1,0,3,0,1 @ F,0,0,1,0,3,0,1 @ F,0,0,1,0,3,0,1"
       radius="4"
       unit="px"
       method="auto"
       mode="F"
       chamfer_steps="1"
       flexible="false"
       use_knot_distance="true"
       apply_no_radius="true"
       apply_with_radius="true"
       only_selected="false"
       hide_knots="false" />
    <inkscape:path-effect
       effect="offset"
       id="path-effect4"
       is_visible="true"
       lpeversion="1.2"
       linejoin_type="miter"
       unit="mm"
       offset="2.2"
       miter_limit="4"
       attempt_force_join="false"
       update_on_knot_move="true" />
    <inkscape:path-effect
       effect="fillet_chamfer"
       id="path-effect3"
       is_visible="true"
       lpeversion="1"
       nodesatellites_param="F,0,0,1,0,0,0,1 @ F,0,0,1,0,0,0,1 @ F,0,0,1,0,0,0,1 @ F,0,0,1,0,0,0,1 @ F,0,0,1,0,0,0,1 @ F,0,0,1,0,0,0,1 @ F,0,0,1,0,0,0,1 @ F,0,0,1,0,0,0,1 @ F,0,0,1,0,0,0,1 @ F,0,0,1,0,0,0,1 @ F,0,0,1,0,0,0,1 @ F,0,0,1,0,0,0,1 @ F,0,0,1,0,0,0,1 @ F,0,0,1,0,0,0,1 @ F,0,0,1,0,0,0,1 @ F,0,0,1,0,0,0,1 @ F,0,0,1,0,0,0,1 @ F,0,0,1,0,0,0,1 @ F,0,0,1,0,0,0,1 @ F,0,0,1,0,0,0,1 @ F,0,0,1,0,0,0,1 | F,0,0,1,0,0,0,1 @ F,0,0,1,0,0,0,1 @ F,0,0,1,0,0,0,1 @ F,0,0,1,0,0,0,1 @ F,0,0,1,0,0,0,1 @ F,0,0,1,0,0,0,1 @ F,0,0,1,0,0,0,1 @ F,0,0,1,0,0,0,1 @ F,0,0,1,0,0,0,1 @ F,0,0,1,0,0,0,1 @ F,0,0,1,0,0,0,1 @ F,0,0,1,0,0,0,1 @ F,0,0,1,0,0,0,1 @ F,0,0,1,0,0,0,1 @ F,0,0,1,0,0,0,1 @ F,0,0,1,0,0,0,1 @ F,0,0,1,0,0,0,1 @ F,0,0,1,0,0,0,1 @ F,0,0,1,0,0,0,1 @ F,0,0,1,0,0,0,1 @ F,0,0,1,0,0,0,1 @ F,0,0,1,0,0,0,1 @ F,0,0,1,0,0,0,1 @ F,0,0,1,0,0,0,1 @ F,0,0,1,0,0,0,1 @ F,0,0,1,0,0,0,1 @ F,0,0,1,0,0,0,1 @ F,0,0,1,0,0,0,1 @ F,0,0,1,0,0,0,1 @ F,0,0,1,0,0,0,1 @ F,0,0,1,0,0,0,1 @ F,0,0,1,0,0,0,1 @ F,0,0,1,0,0,0,1 @ F,0,0,1,0,0,0,1 @ F,0,0,1,0,0,0,1 @ F,0,0,1,0,0,0,1 @ F,0,0,1,0,0,0,1 @ F,0,0,1,0,0,0,1 @ F,0,0,1,0,0,0,1 @ F,0,0,1,0,0,0,1 @ F,0,0,1,0,0,0,1 @ F,0,0,1,0,0,0,1 @ F,0,0,1,0,0,0,1 @ F,0,0,1,0,0,0,1 @ F,0,0,1,0,0,0,1 @ F,0,0,1,0,0,0,1 @ F,0,0,1,0,0,0,1 @ F,0,0,1,0,0,0,1"
       radius="0"
       unit="px"
       method="auto"
       mode="F"
       chamfer_steps="1"
       flexible="false"
       use_knot_distance="true"
       apply_no_radius="true"
       apply_with_radius="true"
       only_selected="false"
       hide_knots="false" />
    <inkscape:path-effect
       effect="fillet_chamfer"
       id="path-effect10-3"
       is_visible="true"
       lpeversion="1"
       nodesatellites_param="F,0,0,1,0,391,0,1 @ F,0,0,1,0,391,0,1 @ F,0,0,1,0,391,0,1 @ F,0,0,1,0,391,0,1"
       radius="391"
       unit="px"
       method="auto"
       mode="F"
       chamfer_steps="1"
       flexible="false"
       use_knot_distance="true"
       apply_no_radius="true"
       apply_with_radius="true"
       only_selected="false"
       hide_knots="false" />
  </defs>
  <sodipodi:namedview
     id="namedview1"
     pagecolor="#ffffff"
     bordercolor="#000000"
     borderopacity="0.25"
     inkscape:showpageshadow="2"
     inkscape:pageopacity="0.0"
     inkscape:pagecheckerboard="0"
     inkscape:deskcolor="#d1d1d1"
     showgrid="false"
     inkscape:zoom="11.313709"
     inkscape:cx="2.7842329"
     inkscape:cy="16.793786"
     inkscape:window-width="1920"
     inkscape:window-height="990"
     inkscape:window-x="1920"
     inkscape:window-y="28"
     inkscape:window-maximized="1"
     inkscape:current-layer="g1" />
  <g
     transform="translate(0.000000,750.000000) scale(0.100000,-0.100000)"
     fill="#763ebd"
     stroke="none"
     id="g1">
    <path
       d="M 223,7452 C 167,7405 83,7313 27,7239 L 0,7203 V 3829 455 L 76,370 C 165,269 192,245 285,178 372,116 487,57 566,35 598,25 629,14 635,9 640,4 1921,0 3678,0 c 2764,0 3038,1 3085,16 29,9 106,43 172,75 247,119 426,311 534,571 l 31,74 -2,3109 -3,3110 -51,106 c -73,151 -122,220 -241,337 l -105,102 H 3689 281 Z m 4664,-678 c 43,-9 107,-25 143,-37 l 65,-22 3,-842 c 1,-567 5,-843 12,-843 6,0 36,11 68,24 81,33 171,61 297,93 97,24 129,27 275,28 154,0 172,-2 260,-29 136,-41 230,-89 304,-157 85,-78 133,-153 175,-274 34,-96 35,-105 35,-240 0,-144 -14,-223 -49,-272 l -16,-23 -57,29 c -138,69 -283,95 -482,88 -173,-6 -263,-27 -397,-91 -172,-83 -282,-175 -374,-316 l -49,-74 v -456 c 0,-499 -6,-598 -52,-830 -158,-804 -650,-1368 -1366,-1566 -208,-57 -332,-75 -567,-81 -408,-11 -706,38 -1026,167 -593,239 -1018,737 -1179,1380 -66,260 -76,662 -25,955 56,319 188,628 375,877 91,122 302,329 421,415 293,211 615,334 949,363 548,47 957,-58 1333,-342 l 77,-59 v -481 -481 l -65,90 c -178,250 -395,386 -744,469 -84,20 -370,23 -456,5 -83,-17 -219,-58 -288,-87 -77,-33 -146,-75 -242,-150 -190,-148 -308,-322 -395,-583 -68,-201 -85,-487 -44,-735 76,-464 443,-863 882,-956 125,-27 359,-37 485,-21 147,20 254,48 353,95 120,57 200,112 297,205 193,184 314,408 358,660 20,114 20,148 19,1926 0,1210 3,1828 10,1864 16,84 58,166 107,212 124,114 333,152 570,103 z"
       id="path1"
       inkscape:original-d="M 223,7452 C 167,7405 83,7313 27,7239 L 0,7203 V 3829 455 L 76,370 C 165,269 192,245 285,178 372,116 487,57 566,35 598,25 629,14 635,9 640,4 1921,0 3678,0 c 2764,0 3038,1 3085,16 29,9 106,43 172,75 247,119 426,311 534,571 l 31,74 -2,3109 -3,3110 -51,106 c -73,151 -122,220 -241,337 l -105,102 H 3689 281 Z m 4664,-678 c 43,-9 107,-25 143,-37 l 65,-22 3,-842 c 1,-567 5,-843 12,-843 6,0 36,11 68,24 81,33 171,61 297,93 97,24 129,27 275,28 154,0 172,-2 260,-29 136,-41 230,-89 304,-157 85,-78 133,-153 175,-274 34,-96 35,-105 35,-240 0,-144 -14,-223 -49,-272 l -16,-23 -57,29 c -138,69 -283,95 -482,88 -173,-6 -263,-27 -397,-91 -172,-83 -282,-175 -374,-316 l -49,-74 v -456 c 0,-499 -6,-598 -52,-830 -158,-804 -650,-1368 -1366,-1566 -208,-57 -332,-75 -567,-81 -408,-11 -706,38 -1026,167 -593,239 -1018,737 -1179,1380 -66,260 -76,662 -25,955 56,319 188,628 375,877 91,122 302,329 421,415 293,211 615,334 949,363 548,47 957,-58 1333,-342 l 77,-59 v -481 -481 l -65,90 c -178,250 -395,386 -744,469 -84,20 -370,23 -456,5 -83,-17 -219,-58 -288,-87 -77,-33 -146,-75 -242,-150 -190,-148 -308,-322 -395,-583 -68,-201 -85,-487 -44,-735 76,-464 443,-863 882,-956 125,-27 359,-37 485,-21 147,20 254,48 353,95 120,57 200,112 297,205 193,184 314,408 358,660 20,114 20,148 19,1926 0,1210 3,1828 10,1864 16,84 58,166 107,212 124,114 333,152 570,103 z"
       inkscape:path-effect="#path-effect3"
       transform="translate(-13904.218,-2361.0088)" />
    <path
       id="rect3"
       style="fill:#763ebd;fill-opacity:1;stroke-width:858.791;stroke-dasharray:none;paint-order:normal"
       d="M 596.6288,7490.9633 C 453.5566,7491.0374 316.32078,7423.7672 215.11794,7303.9544 113.91509,7184.1416 57.037156,7021.6029 56.999229,6852.1025 V 621.31869 C 57.037123,451.81826 113.91505,289.27957 215.11789,169.46674 316.32074,49.653909 453.55658,-17.616349 596.6288,-17.542257 h 6372.5429 c 143.0722,-0.07407 280.308,67.196198 381.5109,187.009027 101.2028,119.81283 158.0807,282.35151 158.1186,451.85192 V 6852.1025 c -0.038,169.5004 -56.9159,332.039 -158.1187,451.8518 -101.2028,119.8128 -238.4386,187.0831 -381.5108,187.009 z M 4701.9716,6767.047 c 92.4731,3.9905 189.992,-6.5952 280.2104,-33.5496 l 106.7918,-32.1321 13.7034,-840.1587 c 7.6174,-462.0117 16.8214,-842.7838 20.3189,-846.3017 3.4975,-3.5187 97.4021,23.2396 208.3857,59.5388 275.9964,90.2666 560.1245,97.4806 766.4441,18.9013 287.6545,-109.5569 436.439,-349.1827 422.9146,-680.9162 -3.9438,-96.7417 -18.0962,-187.1847 -31.6595,-200.8253 -18.6646,-18.7707 -52.6378,-14.0503 -138.9239,18.4286 -376.9899,141.9051 -846.7336,37.6724 -1102.8857,-244.298 -59.7267,-65.7474 -113.2888,-140.2864 -118.6051,-165.8583 -5.3161,-25.5716 -18.9436,-312.0787 -30.2419,-636.4981 -16.6146,-477.1136 -28.6756,-623.8802 -64.7366,-768.8067 C 4842.2197,1645.0777 4369.026,1136.6915 3661.46,939.80402 c -165.2425,-45.98027 -252.5863,-56.2412 -548.135,-62.84642 -193.4782,-4.32449 -409.2625,1.40701 -479.6182,12.28572 -303.9462,47.00893 -705.2464,211.49058 -934.6649,383.22208 -136.1259,101.8973 -366.4879,342.6308 -460.2445,481.0358 -104.0878,153.6552 -226.773,429.7096 -282.5731,636.0257 -42.89616,158.6048 -49.15064,231.5192 -48.67057,558.0582 0.5961,404.1595 21.49409,535.8653 129.94577,811.8069 230.5793,586.6828 741.0952,1046.8319 1340.0958,1207.7873 246.2112,66.1584 759.3201,66.5231 996.5663,0.9452 188.0868,-51.9957 426.8514,-166.6196 575.5419,-276.4303 l 26.11,-23.515 v -461.662 l -7.5049,-402.5316 -0.649,-3.4835 c -233.0242,296.5844 -542.4257,438.0356 -958.2914,438.0356 -189.9789,0 -255.6706,-9.4718 -396.9254,-57.1762 -188.9636,-63.818 -391.8022,-198.1069 -511.2776,-338.3315 -95.8987,-112.5539 -212.9788,-348.5284 -257.5291,-520.256 -41.2861,-159.1442 -46.9943,-560.4606 -10.3957,-720.1359 92.1667,-402.1204 411.7546,-762.0315 777.3123,-875.5986 302.2018,-93.8844 704.9936,-71.2956 962.5441,54.3409 193.5201,94.4014 418.2167,321.3046 519.3107,524.5087 45.9303,92.3227 93.2216,218.6993 105.3744,281.1555 13.826,71.0497 24.874,816.0122 29.7693,1990.2973 8.2661,1982.8394 6.6735,1946.0042 107.7369,2056.9241 72.0247,79.0506 212.5616,126.1302 366.6835,132.781 z"
       sodipodi:nodetypes="csccsccsccsccscccscssscsscssscsssccsccccccscsscssssscs" />
  </g>
</svg>
