<svg width="121" height="21" viewBox="0 0 121 21" fill="none" xmlns="http://www.w3.org/2000/svg">
<path d="M56.1733 16.1538C54.9869 16.1538 53.9399 15.899 53.0322 15.3892C52.1317 14.8723 51.4242 14.1651 50.9096 13.2677C50.4022 12.3631 50.1484 11.3292 50.1484 10.1662C50.1484 8.89539 50.3986 7.78974 50.8989 6.84923C51.3992 5.90872 52.0888 5.18 52.9679 4.66308C53.847 4.13897 54.8582 3.87692 56.0017 3.87692C57.2167 3.87692 58.2494 4.1641 59.0999 4.73846C59.9504 5.31282 60.5793 6.12051 60.9867 7.16154C61.3941 8.20256 61.537 9.42667 61.4155 10.8338H58.5317V9.75692C58.5317 8.57231 58.3423 7.72154 57.9636 7.20462C57.5919 6.68051 56.9809 6.41846 56.1304 6.41846C55.137 6.41846 54.4044 6.72359 53.9327 7.33385C53.4682 7.93692 53.2359 8.83077 53.2359 10.0154C53.2359 11.0995 53.4682 11.9395 53.9327 12.5354C54.4044 13.1241 55.0941 13.4185 56.0017 13.4185C56.5735 13.4185 57.063 13.2928 57.4704 13.0415C57.8778 12.7903 58.1887 12.4277 58.4031 11.9538L61.319 12.7938C60.8831 13.8564 60.1934 14.6821 59.25 15.2708C58.3138 15.8595 57.2882 16.1538 56.1733 16.1538ZM52.3354 10.8338V8.65846H60.0111V10.8338H52.3354Z" fill="#fff"/>
<path d="M45.0906 15.8308V0H48.0066V15.8308H45.0906Z" fill="#fff"/>
<path d="M37.6074 16.1538C36.4567 16.1538 35.4955 15.8846 34.7236 15.3462C33.9517 14.8077 33.3693 14.0754 32.9762 13.1492C32.5903 12.2231 32.3973 11.1785 32.3973 10.0154C32.3973 8.85231 32.5903 7.80769 32.9762 6.88154C33.3621 5.95539 33.9303 5.22308 34.6807 4.68462C35.4311 4.14615 36.3567 3.87692 37.4573 3.87692C38.565 3.87692 39.5299 4.14256 40.3518 4.67385C41.1737 5.20513 41.8097 5.93385 42.26 6.86C42.7174 7.77898 42.9461 8.83077 42.9461 10.0154C42.9461 11.1785 42.721 12.2231 42.2707 13.1492C41.8276 14.0754 41.2058 14.8077 40.4054 15.3462C39.6049 15.8846 38.6722 16.1538 37.6074 16.1538ZM31.9042 21V4.2H34.477V12.1692H34.8415V21H31.9042ZM37.1357 13.5477C37.7646 13.5477 38.2792 13.3897 38.6794 13.0738C39.0796 12.758 39.3762 12.3344 39.5692 11.8031C39.7621 11.2646 39.8586 10.6687 39.8586 10.0154C39.8586 9.36923 39.7586 8.78051 39.5585 8.24923C39.3583 7.71077 39.0475 7.28359 38.6258 6.96769C38.2113 6.64462 37.6788 6.48308 37.0285 6.48308C36.421 6.48308 35.9278 6.63026 35.5491 6.92462C35.1774 7.21898 34.9058 7.6318 34.7343 8.16308C34.5628 8.69436 34.477 9.3118 34.477 10.0154C34.477 10.719 34.5628 11.3364 34.7343 11.8677C34.9058 12.399 35.1846 12.8118 35.5705 13.1062C35.9636 13.4005 36.4853 13.5477 37.1357 13.5477Z" fill="#fff"/>
<path d="M26.6509 15.8308V8.96C26.6509 8.19179 26.4686 7.5959 26.1041 7.17231C25.7468 6.74154 25.2501 6.52615 24.614 6.52615C24.2066 6.52615 23.8529 6.62308 23.5527 6.81692C23.2525 7.00359 23.0167 7.26923 22.8452 7.61385C22.6808 7.95128 22.5986 8.34256 22.5986 8.78769L21.3765 7.96923C21.3765 7.17231 21.5623 6.46872 21.9339 5.85846C22.3127 5.24821 22.8166 4.77436 23.4455 4.43692C24.0816 4.09231 24.7855 3.92 25.5574 3.92C26.8796 3.92 27.8766 4.31487 28.5484 5.10461C29.2273 5.88718 29.5668 6.91385 29.5668 8.18462V15.8308H26.6509ZM12.693 15.8308V4.2H15.2659V8.05538H15.6304V15.8308H12.693ZM19.6827 15.8308V8.96C19.6827 8.19179 19.5004 7.5959 19.1359 7.17231C18.7786 6.74154 18.2819 6.52615 17.6458 6.52615C17.0383 6.52615 16.5488 6.73795 16.1771 7.16154C15.8126 7.57795 15.6304 8.12 15.6304 8.78769L14.4083 7.92615C14.4083 7.16513 14.5977 6.48308 14.9764 5.88C15.3552 5.27692 15.8627 4.79949 16.4987 4.44769C17.1419 4.0959 17.8602 3.92 18.6535 3.92C19.5612 3.92 20.3044 4.11385 20.8833 4.50154C21.4694 4.88923 21.9018 5.40615 22.1805 6.05231C22.4592 6.69846 22.5986 7.40923 22.5986 8.18462V15.8308H19.6827Z" fill="#fff"/>
<path d="M3.85931 16.1538C3.03027 16.1538 2.32631 15.9959 1.74741 15.68C1.17566 15.3569 0.739702 14.9297 0.439533 14.3985C0.146511 13.86 0 13.2677 0 12.6215C0 12.0831 0.0821891 11.5913 0.246567 11.1462C0.410945 10.701 0.67538 10.3097 1.03987 9.97231C1.41151 9.62769 1.90822 9.34051 2.52999 9.11077C2.95881 8.95282 3.46981 8.81282 4.063 8.69077C4.65619 8.56872 5.328 8.45385 6.07842 8.34615C6.82884 8.23128 7.6543 8.10564 8.55481 7.96923L7.50422 8.55077C7.50422 7.86154 7.33984 7.35539 7.01108 7.03231C6.68233 6.70923 6.13202 6.54769 5.36016 6.54769C4.93134 6.54769 4.48466 6.6518 4.02012 6.86C3.55557 7.06821 3.23039 7.43795 3.04457 7.96923L0.407372 7.12923C0.700394 6.16718 1.2507 5.38462 2.0583 4.78154C2.8659 4.17846 3.96652 3.87692 5.36016 3.87692C6.38216 3.87692 7.28981 4.03487 8.08312 4.35077C8.87642 4.66667 9.47676 5.21231 9.88413 5.98769C10.1128 6.41846 10.2486 6.84923 10.2915 7.28C10.3344 7.71077 10.3558 8.1918 10.3558 8.72308V15.8308H7.80439V13.44L8.16888 13.9354C7.60428 14.7179 6.99322 15.2851 6.3357 15.6369C5.68534 15.9815 4.85988 16.1538 3.85931 16.1538ZM4.48109 13.8492C5.01711 13.8492 5.46736 13.7559 5.83185 13.5692C6.20349 13.3754 6.49651 13.1564 6.71092 12.9123C6.93247 12.6682 7.08255 12.4636 7.16117 12.2985C7.31125 11.9826 7.39702 11.6164 7.41846 11.2C7.44704 10.7764 7.46134 10.4246 7.46134 10.1446L8.31896 10.36C7.45419 10.5036 6.7538 10.6256 6.21778 10.7262C5.68177 10.8195 5.24938 10.9056 4.92062 10.9846C4.59187 11.0636 4.30242 11.1497 4.05228 11.2431C3.7664 11.358 3.53413 11.4836 3.35546 11.62C3.18393 11.7492 3.05529 11.8928 2.96953 12.0508C2.89091 12.2087 2.8516 12.3846 2.8516 12.5785C2.8516 12.8441 2.91593 13.0738 3.04457 13.2677C3.18036 13.4544 3.36975 13.598 3.61275 13.6985C3.85574 13.799 4.14519 13.8492 4.48109 13.8492Z" fill="#fff"/>
<path d="M119.413 15.8307V9.89687C119.413 9.25072 119.353 8.65841 119.231 8.11995C119.11 7.57431 118.913 7.10046 118.642 6.69841C118.377 6.28918 118.031 5.97328 117.602 5.75072C117.18 5.52815 116.665 5.41687 116.058 5.41687C115.501 5.41687 115.007 5.51379 114.579 5.70764C114.157 5.90148 113.8 6.18148 113.507 6.54764C113.221 6.90661 113.003 7.34456 112.853 7.86149C112.703 8.37841 112.627 8.96713 112.627 9.62764L111.513 9.37995C111.513 8.18815 111.72 7.18661 112.134 6.37533C112.549 5.56405 113.121 4.9502 113.85 4.53379C114.579 4.11738 115.415 3.90918 116.358 3.90918C117.051 3.90918 117.655 4.01687 118.17 4.23225C118.692 4.44764 119.131 4.73841 119.488 5.10456C119.853 5.47072 120.146 5.89072 120.368 6.36456C120.589 6.83123 120.75 7.3302 120.85 7.86149C120.95 8.38559 121 8.90969 121 9.43379V15.8307H119.413ZM111.041 15.8307V4.19995H112.467V7.06456H112.627V15.8307H111.041Z" fill="#fff"/>
<path d="M106.691 1.99226V0.215332H108.266V1.99226H106.691ZM106.691 15.8307V4.19995H108.266V15.8307H106.691Z" fill="#fff"/>
<path d="M102.538 15.8307L102.549 8.19533C102.549 7.2979 102.299 6.59431 101.799 6.08456C101.306 5.56764 100.677 5.30918 99.912 5.30918C99.476 5.30918 99.0508 5.40969 98.6363 5.61072C98.2218 5.81174 97.8787 6.13482 97.6071 6.57995C97.3427 7.02508 97.2105 7.60661 97.2105 8.32456L96.2778 8.05533C96.2564 7.22251 96.4172 6.49379 96.7602 5.86918C97.1104 5.24456 97.5893 4.75995 98.1967 4.41533C98.8114 4.06354 99.5046 3.88764 100.276 3.88764C101.441 3.88764 102.374 4.2502 103.074 4.97533C103.775 5.69328 104.125 6.6661 104.125 7.89379L104.114 15.8307H102.538ZM88.72 15.8307V4.19995H90.1351V7.06456H90.3066V15.8307H88.72ZM95.6453 15.8307L95.656 8.30302C95.656 7.37687 95.4095 6.64815 94.9163 6.11687C94.4303 5.57841 93.7871 5.30918 92.9867 5.30918C92.1862 5.30918 91.5394 5.58559 91.0463 6.13841C90.5532 6.68405 90.3066 7.41277 90.3066 8.32456L89.3632 7.80764C89.3632 7.06097 89.5383 6.39328 89.8885 5.80456C90.2387 5.20867 90.7175 4.742 91.325 4.40456C91.9325 4.05995 92.6222 3.88764 93.394 3.88764C94.1302 3.88764 94.7841 4.04559 95.3559 4.36149C95.9348 4.67738 96.3886 5.13687 96.7173 5.73995C97.0461 6.34302 97.2105 7.07533 97.2105 7.93687L97.1997 15.8307H95.6453Z" fill="#fff"/>
<path d="M80.9419 16.1538C79.8627 16.1538 78.9408 15.8846 78.1761 15.3461C77.4113 14.8005 76.8253 14.0646 76.4179 13.1384C76.0106 12.2123 75.8069 11.1676 75.8069 10.0046C75.8069 8.84866 76.007 7.80764 76.4072 6.88148C76.8146 5.95533 77.397 5.22302 78.1546 4.68456C78.9122 4.1461 79.8198 3.87687 80.8776 3.87687C81.9639 3.87687 82.8787 4.14251 83.622 4.67379C84.3653 5.20507 84.9263 5.93379 85.3051 6.85994C85.691 7.77892 85.884 8.82713 85.884 10.0046C85.884 11.1605 85.6946 12.2051 85.3158 13.1384C84.937 14.0646 84.3795 14.8005 83.6434 15.3461C82.9073 15.8846 82.0068 16.1538 80.9419 16.1538ZM81.1027 14.6784C81.9246 14.6784 82.6035 14.4774 83.1396 14.0753C83.6756 13.6733 84.0758 13.1205 84.3402 12.4169C84.6047 11.7061 84.7369 10.902 84.7369 10.0046C84.7369 9.09277 84.6047 8.28866 84.3402 7.59225C84.0758 6.88866 83.6756 6.33943 83.1396 5.94456C82.6107 5.54969 81.9425 5.35225 81.1349 5.35225C80.3058 5.35225 79.6197 5.55687 79.0766 5.9661C78.5334 6.37533 78.1296 6.93174 77.8652 7.63533C77.6079 8.33892 77.4792 9.12866 77.4792 10.0046C77.4792 10.8876 77.6115 11.6846 77.8759 12.3953C78.1475 13.0989 78.5513 13.6553 79.0873 14.0646C79.6233 14.4738 80.2951 14.6784 81.1027 14.6784ZM84.7369 15.8307V7.07533H84.5654V0.323023H86.152V15.8307H84.7369Z" fill="#fff"/>
<path d="M68.2777 16.1538C67.4058 16.1538 66.6732 15.9958 66.08 15.6799C65.494 15.364 65.0545 14.944 64.7614 14.4199C64.4684 13.8958 64.3219 13.3251 64.3219 12.7076C64.3219 12.0758 64.447 11.5374 64.6971 11.0923C64.9544 10.6399 65.301 10.2702 65.737 9.98302C66.1801 9.69584 66.6911 9.47687 67.27 9.3261C67.856 9.18251 68.5028 9.05687 69.2104 8.94918C69.925 8.83431 70.6219 8.73738 71.3008 8.65841C71.9869 8.57225 72.5873 8.48969 73.1018 8.41072L72.5444 8.75533C72.5658 7.60661 72.3443 6.75584 71.8797 6.20302C71.4152 5.6502 70.6076 5.37379 69.4569 5.37379C68.6636 5.37379 67.9918 5.55328 67.4415 5.91225C66.8983 6.27123 66.516 6.83841 66.2944 7.61379L64.7614 7.16148C65.0259 6.12046 65.5583 5.31277 66.3588 4.73841C67.1592 4.16405 68.1991 3.87687 69.4784 3.87687C70.5361 3.87687 71.433 4.0779 72.1692 4.47995C72.9124 4.87482 73.4377 5.44918 73.7451 6.20302C73.888 6.54046 73.9809 6.91738 74.0238 7.33379C74.0667 7.7502 74.0881 8.17379 74.0881 8.60456V15.8307H72.6837V12.9123L73.0911 13.0846C72.698 14.0825 72.087 14.8435 71.2579 15.3676C70.4289 15.8917 69.4355 16.1538 68.2777 16.1538ZM68.4599 14.7861C69.1961 14.7861 69.8393 14.6533 70.3896 14.3876C70.9399 14.122 71.383 13.7594 71.7189 13.2999C72.0548 12.8333 72.2728 12.3092 72.3729 11.7276C72.4586 11.3543 72.5051 10.9451 72.5122 10.4999C72.5194 10.0476 72.5229 9.7102 72.5229 9.48764L73.1233 9.79995C72.5873 9.87174 72.0048 9.94354 71.3759 10.0153C70.7541 10.0871 70.1395 10.1697 69.532 10.263C68.9316 10.3564 68.3885 10.4676 67.9025 10.5969C67.5737 10.6902 67.2557 10.823 66.9484 10.9953C66.6411 11.1605 66.3873 11.383 66.1872 11.663C65.9943 11.943 65.8978 12.2912 65.8978 12.7076C65.8978 13.0451 65.98 13.3717 66.1444 13.6876C66.3159 14.0035 66.5875 14.2656 66.9591 14.4738C67.3379 14.682 67.8382 14.7861 68.4599 14.7861Z" fill="#fff"/>
</svg>
